<?xml version="1.0" encoding="UTF-8"?>
<svg id="Layer_1" data-name="Layer 1" xmlns="http://www.w3.org/2000/svg" xmlns:xlink="http://www.w3.org/1999/xlink" viewBox="0 0 1080 1080">
  <defs>
    <style>
      .cls-1 {
        fill: url(#linear-gradient-2);
      }

      .cls-2 {
        fill: url(#linear-gradient);
      }
    </style>
    <linearGradient id="linear-gradient" x1="646.84" y1="1215.58" x2="293.2" y2="132.97" gradientUnits="userSpaceOnUse">
      <stop offset="0" stop-color="gold"/>
      <stop offset=".03" stop-color="#ffbb19"/>
      <stop offset=".07" stop-color="#ff9f33"/>
      <stop offset=".12" stop-color="#ff8a47"/>
      <stop offset=".16" stop-color="#ff7a55"/>
      <stop offset=".22" stop-color="#ff715e"/>
      <stop offset=".3" stop-color="#ff6f61"/>
      <stop offset=".36" stop-color="#db8471"/>
      <stop offset=".43" stop-color="#b19e85"/>
      <stop offset=".51" stop-color="#90b295"/>
      <stop offset=".58" stop-color="#79c1a0"/>
      <stop offset=".64" stop-color="#6acaa7"/>
      <stop offset=".7" stop-color="#66cdaa"/>
      <stop offset=".71" stop-color="#60c6a8"/>
      <stop offset=".8" stop-color="#37989c"/>
      <stop offset=".89" stop-color="#197694"/>
      <stop offset=".95" stop-color="#06618e"/>
      <stop offset="1" stop-color="#005a8d"/>
    </linearGradient>
    <linearGradient id="linear-gradient-2" x1="615.66" y1="784.19" x2="902.1" y2="-141.8" gradientUnits="userSpaceOnUse">
      <stop offset="0" stop-color="gold"/>
      <stop offset=".5" stop-color="#66cdaa"/>
      <stop offset="1" stop-color="#005a8d"/>
    </linearGradient>
  </defs>
  <path class="cls-2" d="M486.21,923.58L258.5,190.92c-4.32-15.43-3.09-29.77,3.7-43.04,6.78-13.57,18.05-22.83,33.79-27.77,14.81-4.32,29-2.93,42.58,4.17,13.26,7.1,22.52,18.05,27.77,32.86l227.25,733.12c4.32,15.12,2.93,29.32-4.17,42.58-7.1,13.58-18.05,22.99-32.86,28.23-5.55,1.24-11.27,1.85-17.12,1.85-11.73,0-22.53-3.54-32.4-10.65-9.88-7.09-16.82-16.66-20.83-28.69Z"/>
  <path class="cls-1" d="M823.75,162.64l-213.13,724.83-59.71-189.3L717.61,126.19c1.41-4.85,5.86-8.19,10.92-8.19h191.15c3.03,0,3.72,4.24,.85,5.2-28.99,9.75-57.99,19.5-86.98,29.26-4.73,1.59-8.39,5.39-9.8,10.19Z"/>
</svg>