<?xml version="1.0" encoding="UTF-8"?>
<svg id="Layer_1" data-name="Layer 1" xmlns="http://www.w3.org/2000/svg" viewBox="0 0 910.25 577.65">
  <defs>
    <style>
      .cls-1 {
      fill: #fff;
      fill-rule: evenodd;
      }
    </style>
  </defs>
  <path class="cls-1"
    d="M98.19,0c-111.75,121.15-3.36,225.86,72.18,329.64,25.9,35.58,47.12,63.62,70.98,92.85,34.29-74.4,53.71-143.06,114.14-227.18C462.2,46.61,589.77-3.47,767.81,56.8c56.96,19.29,91.36,40.26,142.44,70.57-97.11-21.92-196.51-38.82-291.35,3.84-113.29,51.05-181.64,142.11-232.59,252.71-28.53,61.94-61.38,204.89-146.63,193.04-58.87-8.27-173.85-181.66-195.31-227.91C-11.28,229.47-35.02,74.66,98.19,0h0Z" />
</svg>